<svg xmlns="http://www.w3.org/2000/svg" xmlns:xlink="http://www.w3.org/1999/xlink" width="50" height="50" viewBox="0 0 50 50">
  <defs>
    <filter id="Ellipse_1" x="0" y="0" width="50" height="50" filterUnits="userSpaceOnUse">
      <feOffset dy="3" input="SourceAlpha"/>
      <feGaussianBlur stdDeviation="3" result="blur"/>
      <feFlood flood-opacity="0.161"/>
      <feComposite operator="in" in2="blur"/>
      <feComposite in="SourceGraphic"/>
    </filter>
    <filter id="Icon_ionic-ios-arrow-back" x="12" y="9" width="26.538" height="32.934" filterUnits="userSpaceOnUse">
      <feOffset dy="3" input="SourceAlpha"/>
      <feGaussianBlur stdDeviation="3" result="blur-2"/>
      <feFlood flood-opacity="0.161"/>
      <feComposite operator="in" in2="blur-2"/>
      <feComposite in="SourceGraphic"/>
    </filter>
  </defs>
  <g id="Group_8" data-name="Group 8" transform="translate(-10 -19)">
    <g transform="matrix(1, 0, 0, 1, 10, 19)" filter="url(#Ellipse_1)">
      <circle id="Ellipse_1-2" data-name="Ellipse 1" cx="16" cy="16" r="16" transform="translate(9 6)" fill="#fff"/>
    </g>
    <g transform="matrix(1, 0, 0, 1, 10, 19)" filter="url(#Icon_ionic-ios-arrow-back)">
      <path id="Icon_ionic-ios-arrow-back-2" data-name="Icon ionic-ios-arrow-back" d="M13.824,13.659l5.651-5.646a1.067,1.067,0,1,0-1.512-1.507l-6.4,6.4a1.065,1.065,0,0,0-.031,1.472l6.429,6.442a1.067,1.067,0,0,0,1.512-1.507Z" transform="translate(9.75 8.81)" fill="#3aafa9"/>
    </g>
  </g>
</svg>
